<svg width="72" height="72" viewBox="0 0 72 72" fill="none" xmlns="http://www.w3.org/2000/svg">
<circle cx="36" cy="36" r="36" fill="#FFCB47"/>
<path d="M29.0477 51C29.8104 51 30.4287 50.3817 30.4287 49.6191C30.4287 48.8564 29.8104 48.2381 29.0477 48.2381C28.285 48.2381 27.6667 48.8564 27.6667 49.6191C27.6667 50.3817 28.285 51 29.0477 51Z" stroke="white" stroke-width="2" stroke-linecap="round" stroke-linejoin="round"/>
<path d="M44.2381 51C45.0008 51 45.6191 50.3817 45.6191 49.6191C45.6191 48.8564 45.0008 48.2381 44.2381 48.2381C43.4755 48.2381 42.8572 48.8564 42.8572 49.6191C42.8572 50.3817 43.4755 51 44.2381 51Z" stroke="white" stroke-width="2" stroke-linecap="round" stroke-linejoin="round"/>
<path d="M18 22H23.5238L27.2248 40.491C27.351 41.1267 27.6969 41.6978 28.2018 42.1043C28.7068 42.5108 29.3386 42.7267 29.9867 42.7143H43.4095C44.0576 42.7267 44.6894 42.5108 45.1943 42.1043C45.6993 41.6978 46.0451 41.1267 46.1714 40.491L48.381 28.9048H24.9048" stroke="white" stroke-width="2" stroke-linecap="round" stroke-linejoin="round"/>
</svg>
