<svg width="163" height="280" viewBox="0 0 163 280" fill="none" xmlns="http://www.w3.org/2000/svg">
<path fill-rule="evenodd" clip-rule="evenodd" d="M312.123 -297.801C366.396 -299.563 397.517 -239.471 445.638 -216.26C496.526 -191.714 571.884 -202.408 602.625 -157.677C633.128 -113.291 599.654 -55.1139 592.181 -3.02054C585.636 42.6031 582.814 88.1189 561.403 129.69C538.827 173.522 509.869 215.897 465.782 242.391C420.655 269.51 365.987 279.29 312.123 279.494C258.127 279.698 201.351 272.909 157.736 243.556C115.437 215.09 104.303 163.373 77.7436 121.757C50.9338 79.7494 -5.0648 45.4637 0.368679 -3.02054C5.90067 -52.3838 69.8448 -75.4996 104.136 -113.748C132.11 -144.95 152.252 -179.731 183.929 -207.763C223.357 -242.653 257.511 -296.028 312.123 -297.801Z" fill="#FFCB47"/>
</svg>
