<svg width="485" height="288" viewBox="0 0 485 288" fill="none" xmlns="http://www.w3.org/2000/svg">
<path fill-rule="evenodd" clip-rule="evenodd" d="M312.123 -338.959C366.396 -340.87 397.517 -275.701 445.638 -250.529C496.526 -223.909 571.884 -235.507 602.625 -186.997C633.128 -138.862 599.654 -75.7698 592.181 -19.2756C585.636 30.2024 582.814 79.5632 561.403 124.646C538.827 172.182 509.869 218.136 465.782 246.868C420.655 276.278 365.987 286.884 312.123 287.105C258.127 287.327 201.351 279.965 157.736 248.132C115.437 217.26 104.303 161.175 77.7436 116.044C50.9338 70.4867 -5.0648 33.3046 0.368679 -19.2756C5.90067 -72.8091 69.8448 -97.8777 104.136 -139.357C132.11 -173.195 152.252 -210.915 183.929 -241.314C223.357 -279.152 257.511 -337.036 312.123 -338.959Z" fill="#FFCB47"/>
</svg>
